<svg width="600" height="400" viewBox="0 0 600 400" fill="none" xmlns="http://www.w3.org/2000/svg">
  <rect width="600" height="400" fill="#faf5ff"/>
  <rect x="50" y="50" width="500" height="300" rx="8" fill="white" stroke="#e2e8f0" stroke-width="2"/>
  <rect x="70" y="70" width="460" height="40" fill="#7c3aed"/>
  <text x="300" y="95" text-anchor="middle" fill="white" font-family="system-ui" font-size="16" font-weight="600">Social Media Analytics</text>
  <rect x="80" y="130" width="200" height="100" rx="6" fill="#f3e8ff" stroke="#c4b5fd"/>
  <rect x="90" y="140" width="50" height="60" fill="#7c3aed"/>
  <rect x="150" y="160" width="50" height="40" fill="#a855f7"/>
  <rect x="210" y="150" width="50" height="50" fill="#c084fc"/>
  <rect x="300" y="130" width="200" height="100" rx="6" fill="#ecfdf5" stroke="#86efac"/>
  <circle cx="400" cy="180" r="30" fill="#10b981"/>
  <text x="400" y="185" text-anchor="middle" fill="white" font-family="system-ui" font-size="12" font-weight="600">85%</text>
  <rect x="80" y="250" width="420" height="60" rx="6" fill="#fef3c7" stroke="#fde68a"/>
  <rect x="100" y="270" width="80" height="20" rx="10" fill="#f59e0b"/>
  <rect x="200" y="270" width="120" height="20" rx="10" fill="#d97706"/>
  <rect x="340" y="270" width="60" height="20" rx="10" fill="#92400e"/>
  <text x="300" y="370" text-anchor="middle" fill="#64748b" font-family="system-ui" font-size="14">React • D3.js • Python • FastAPI</text>
</svg>
